<?xml version="1.0" encoding="iso-8859-1"?>
<!-- Generator: Adobe Illustrator 19.0.0, SVG Export Plug-In . SVG Version: 6.00 Build 0)  -->
<svg version="1.1" id="Layer_1" xmlns="http://www.w3.org/2000/svg" xmlns:xlink="http://www.w3.org/1999/xlink" x="0px" y="0px"
	 viewBox="0 0 512 512" style="enable-background:new 0 0 512 512;" xml:space="preserve">
<polygon style="fill:#00AE90;" points="293.379,102.966 218.624,102.966 218.624,42.316 293.379,14.106 "/>
<path style="fill:#6FBBDC;" d="M371.37,216.797c0-17.529-13.096-31.989-30.036-34.157v-40.888c0-21.422-17.366-38.788-38.788-38.788
	h-93.091c-21.422,0-38.788,17.366-38.788,38.788v40.888c-16.94,2.168-30.036,16.628-30.036,34.157v41.318H371.37V216.797z"/>
<rect x="140.626" y="258.115" style="fill:#FFCAAB;" width="230.738" height="239.779"/>
<path d="M355.439,171.918v-30.164c0-27.5-21.098-50.156-47.956-52.654V14.106c0-4.631-2.274-8.966-6.083-11.602
	c-3.81-2.633-8.67-3.231-13.002-1.595l-74.755,28.209c-5.492,2.073-9.126,7.327-9.126,13.196v46.785
	c-26.858,2.498-47.956,25.154-47.956,52.654v30.164c-17.761,7.343-30.036,24.878-30.036,44.88v281.099
	c0,7.789,6.316,14.105,14.105,14.105h230.738c7.789,0,14.105-6.316,14.105-14.105V216.797
	C385.475,196.794,373.2,179.26,355.439,171.918z M232.729,52.069l46.545-17.565v54.356h-46.545V52.069z M154.737,216.797
	c0-10.203,7.618-18.873,17.721-20.167c7.04-0.901,12.313-6.893,12.313-13.99v-40.887c0-13.61,11.074-24.683,24.683-24.683h9.168
	h74.755h9.168c13.61,0,24.683,11.074,24.683,24.683v40.887c0,7.097,5.274,13.089,12.313,13.99
	c10.103,1.293,17.721,9.962,17.721,20.167v27.215H154.734v-27.215H154.737z M357.266,483.791H154.737V341.334h117.249
	c7.789,0,14.105-6.316,14.105-14.105c0-7.789-6.316-14.105-14.105-14.105H154.737v-40.903h202.529V483.791L357.266,483.791z"/>
<path d="M314.296,341.334c-0.917,0-1.849-0.099-2.75-0.282s-1.793-0.451-2.638-0.804c-0.86-0.353-1.678-0.79-2.439-1.298
	c-0.777-0.506-1.497-1.1-2.145-1.749c-2.623-2.622-4.133-6.261-4.133-9.971c0-0.917,0.097-1.849,0.282-2.75
	c0.183-0.903,0.45-1.793,0.803-2.652c0.353-0.848,0.791-1.664,1.298-2.426c0.508-0.777,1.1-1.497,1.749-2.145
	c0.649-0.649,1.368-1.241,2.145-1.749c0.76-0.506,1.578-0.945,2.439-1.298c0.846-0.353,1.735-0.635,2.638-0.803
	c4.584-0.931,9.45,0.577,12.722,3.849c0.649,0.649,1.243,1.368,1.763,2.145c0.508,0.762,0.945,1.578,1.298,2.426
	c0.353,0.859,0.621,1.749,0.804,2.652c0.183,0.903,0.268,1.834,0.268,2.75c0,0.915-0.086,1.848-0.268,2.75
	c-0.183,0.903-0.451,1.791-0.804,2.652c-0.353,0.846-0.79,1.664-1.298,2.426c-0.52,0.776-1.114,1.495-1.763,2.144
	C321.645,339.825,318.02,341.334,314.296,341.334z"/>
<g>
</g>
<g>
</g>
<g>
</g>
<g>
</g>
<g>
</g>
<g>
</g>
<g>
</g>
<g>
</g>
<g>
</g>
<g>
</g>
<g>
</g>
<g>
</g>
<g>
</g>
<g>
</g>
<g>
</g>
</svg>
